<?xml version="1.0" encoding="UTF-8" standalone="no"?>
<svg xmlns="http://www.w3.org/2000/svg"
     xmlns:xlink="http://www.w3.org/1999/xlink"
     viewBox="0 0 150 150"
     width="150" height="150"
     version="1.1">
  <title>reCAPTCHA Validator</title>
  <defs id="DotNet-Gradiants">
    <linearGradient id="linearGradient-DotNET-01"
                    spreadMethod="pad"
                    gradientTransform="matrix(0,56.735305,-56.735305,0,67.505123,75.439716)"
                    gradientUnits="userSpaceOnUse"
                    xlink:href="#linearGradient-Ref-01"
                    x1="0" y1="0" x2="1" y2="0" />
    <linearGradient id="linearGradient-DotNET-02"
                    spreadMethod="pad"
                    gradientTransform="matrix(0,58.181209,-58.181209,0,69.668259,74.003283)"
                    gradientUnits="userSpaceOnUse"
                    xlink:href="#linearGradient-Ref-02"
                    x1="0" y1="0" x2="1" y2="0" />
    <linearGradient id="linearGradient-DotNET-03"
                    spreadMethod="pad"
                    gradientTransform="matrix(0,-46.293978,46.293978,0,81.361634,119.59797)"
                    gradientUnits="userSpaceOnUse"
                    xlink:href="#linearGradient-Ref-03"
                    x1="0" y1="0" x2="1" y2="0" />
    <linearGradient id="linearGradient-DotNET-04"
                    spreadMethod="pad"
                    gradientTransform="matrix(0,60.407152,-60.407152,0,78.318793,68.108153)"
                    gradientUnits="userSpaceOnUse"
                    xlink:href="#linearGradient-Ref-04"
                    x1="0" y1="0" x2="1" y2="0" />
    <linearGradient id="linearGradient-DotNET-05"
                    spreadMethod="pad"
                    gradientTransform="matrix(0,64.235003,-64.235003,0,73.55731,68.425638)"
                    gradientUnits="userSpaceOnUse"
                    xlink:href="#linearGradient-Ref-05"
                    x1="0" y1="0" x2="1" y2="0" />
    <linearGradient id="linearGradient-DotNET-06"
                    gradientTransform="matrix(1.5302176,0,0,1.5302176,-1419.2947,-3077.8107)"
                    gradientUnits="userSpaceOnUse"
                    xlink:href="#linearGradient-Ref-06"
                    x1="0" y1="0" x2="1" y2="0" />
    <linearGradient id="linearGradient-DotNET-07"
                    spreadMethod="pad"
                    gradientTransform="matrix(0,-45.096745,45.096745,0,115.96517,118.43791)"
                    gradientUnits="userSpaceOnUse"
                    xlink:href="#linearGradient-Ref-07"
                    x1="0" y1="0" x2="1" y2="0" />
    <linearGradient id="linearGradient-DotNET-08"
                    gradientTransform="matrix(1.5302176,0,0,1.5302176,-1419.2947,-3077.8107)"
                    gradientUnits="userSpaceOnUse"
                    xlink:href="#linearGradient-Ref-08"
                    x1="0" y1="0" x2="1" y2="0" />
    <linearGradient id="linearGradient-DotNET-09"
                    spreadMethod="pad"
                    gradientTransform="matrix(0,-46.175422,46.175422,0,34.186738,119.57365)"
                    gradientUnits="userSpaceOnUse"
                    xlink:href="#linearGradient-Ref-09"
                    x1="0" y1="0" x2="1" y2="0" />
    <linearGradient id="linearGradient-DotNET-10"
                    spreadMethod="pad"
                    gradientTransform="matrix(0,-44.885028,44.885028,0,37.093204,119.73616)"
                    gradientUnits="userSpaceOnUse"
                    xlink:href="#linearGradient-Ref-10"
                    x1="0" y1="0" x2="1" y2="0" />
    <linearGradient id="linearGradient-DotNET-11"
                    spreadMethod="pad"
                    gradientTransform="matrix(0,-37.928551,37.928551,0,39.506557,122.02627)"
                    gradientUnits="userSpaceOnUse"
                    xlink:href="#linearGradient-Ref-11"
                    x1="0" y1="0" x2="1" y2="0" />
    <linearGradient id="linearGradient-DotNET-12"
                    spreadMethod="pad"
                    gradientTransform="matrix(-7.2514945,-41.12527,41.12527,-7.2514945,40.959851,119.60347)"
                    gradientUnits="userSpaceOnUse"
                    xlink:href="#linearGradient-Ref-12"
                    x1="0" y1="0" x2="1" y2="0" />
    <linearGradient id="linearGradient-DotNET-13"
                    spreadMethod="pad"
                    gradientTransform="matrix(0,-21.491774,21.491774,0,108.24315,96.345846)"
                    gradientUnits="userSpaceOnUse"
                    xlink:href="#linearGradient-Ref-13"
                    x1="0" y1="0" x2="1" y2="0" />
    <linearGradient id="linearGradient-DotNET-14"
                    spreadMethod="pad"
                    gradientTransform="matrix(-8.7385802,49.558877,-49.558877,-8.7385802,118.34497,72.867589)"
                    gradientUnits="userSpaceOnUse"
                    xlink:href="#linearGradient-Ref-14"
                    x1="0" y1="0" x2="1" y2="0" />
    <linearGradient id="linearGradient-DotNET-15"
                    spreadMethod="pad"
                    gradientTransform="matrix(0,46.886731,-46.886731,0,110.52204,74.606653)"
                    gradientUnits="userSpaceOnUse"
                    xlink:href="#linearGradient-Ref-15"
                    x1="0" y1="0" x2="1" y2="0" />
    <linearGradient id="linearGradient-DotNET-16"
                    spreadMethod="pad"
                    gradientTransform="matrix(10.800058,4.4795569,-4.4795569,10.800058,50.718068,73.642815)"
                    gradientUnits="userSpaceOnUse"
                    xlink:href="#linearGradient-Ref-16"
                    x1="0" y1="0" x2="1" y2="0" />
    <linearGradient id="linearGradient-DotNET-17"
                    spreadMethod="pad"
                    gradientTransform="matrix(8.5298669,-3.8668721,3.8668721,8.5298669,56.962503,79.020617)"
                    gradientUnits="userSpaceOnUse"
                    xlink:href="#linearGradient-Ref-17"
                    x1="0" y1="0" x2="1" y2="0" />
    <linearGradient id="linearGradient-DotNET-18"
                    spreadMethod="pad"
                    gradientTransform="matrix(0,45.859919,-45.859919,0,104.17468,77.199316)"
                    gradientUnits="userSpaceOnUse"
                    xlink:href="#linearGradient-Ref-18"
                    x1="0" y1="0" x2="1" y2="0" />

    <linearGradient id="linearGradient-Ref-01"
                    spreadMethod="pad"
                    gradientTransform="matrix(0,-29.661301,-29.661301,0,2008.5107,86.026367)"
                    gradientUnits="userSpaceOnUse"
                    x1="0" y1="0" x2="1" y2="0">
      <stop
         offset="0"
         style="stop-color:#0994dc;stop-opacity:1"
         id="stop12327" />
      <stop
         offset="0.35000601"
         style="stop-color:#66cef5;stop-opacity:1"
         id="stop12329" />
      <stop
         offset="0.35000601"
         style="stop-color:#66cef5;stop-opacity:1"
         id="stop12331" />
      <stop
         offset="0.84616101"
         style="stop-color:#127bca;stop-opacity:1"
         id="stop12333" />
      <stop
         offset="0.84616101"
         style="stop-color:#127bca;stop-opacity:1"
         id="stop12335" />
      <stop
         offset="1"
         style="stop-color:#127bca;stop-opacity:1"
         id="stop12337" />
    </linearGradient>
    <linearGradient id="linearGradient-Ref-02"
                    spreadMethod="pad"
                    gradientTransform="matrix(0,-30.417221,-30.417221,0,2009.6416,86.777344)"
                    gradientUnits="userSpaceOnUse"
                    x1="0" y1="0" x2="1" y2="0">
      <stop
         offset="0"
         style="stop-color:#0e76bc;stop-opacity:1"
         id="stop12355" />
      <stop
         offset="0.360001"
         style="stop-color:#36aee8;stop-opacity:1"
         id="stop12357" />
      <stop
         offset="0.360001"
         style="stop-color:#36aee8;stop-opacity:1"
         id="stop12359" />
      <stop
         offset="0.84616101"
         style="stop-color:#00adef;stop-opacity:1"
         id="stop12361" />
      <stop
         offset="0.84616101"
         style="stop-color:#00adef;stop-opacity:1"
         id="stop12363" />
      <stop
         offset="1"
         style="stop-color:#00adef;stop-opacity:1"
         id="stop12365" />
    </linearGradient>
    <linearGradient id="linearGradient-Ref-03"
                    spreadMethod="pad"
                    gradientTransform="matrix(0,24.20256,24.20256,0,2015.7549,62.94043)"
                    gradientUnits="userSpaceOnUse"
                    x1="0" y1="0" x2="1" y2="0">
      <stop
         offset="0"
         style="stop-color:#1c63b7;stop-opacity:1"
         id="stop12441" />
      <stop
         offset="0.5"
         style="stop-color:#33bdf2;stop-opacity:1"
         id="stop12443" />
      <stop
         offset="1"
         style="stop-color:#33bdf2;stop-opacity:0.41960785"
         id="stop12445" />
    </linearGradient>
    <linearGradient id="linearGradient-Ref-04"
                    spreadMethod="pad"
                    gradientTransform="matrix(0,-31.580948,-31.580948,0,2014.1641,89.859375)"
                    gradientUnits="userSpaceOnUse"
                    x1="0" y1="0" x2="1" y2="0">
      <stop
         offset="0"
         style="stop-color:#166ab8;stop-opacity:1"
         id="stop12541" />
      <stop
         offset="0.39999399"
         style="stop-color:#36aee8;stop-opacity:1"
         id="stop12543" />
      <stop
         offset="0.39999399"
         style="stop-color:#36aee8;stop-opacity:1"
         id="stop12545" />
      <stop
         offset="0.84616101"
         style="stop-color:#0798dd;stop-opacity:1"
         id="stop12547" />
      <stop
         offset="0.84616101"
         style="stop-color:#0798dd;stop-opacity:1"
         id="stop12549" />
      <stop
         offset="1"
         style="stop-color:#0798dd;stop-opacity:1"
         id="stop12551" />
    </linearGradient>
    <linearGradient id="linearGradient-Ref-05"
                    spreadMethod="pad"
                    gradientTransform="matrix(0,-33.582153,-33.582153,0,2011.6748,89.693359)"
                    gradientUnits="userSpaceOnUse"
                    x1="0" y1="0" x2="1" y2="0">
      <stop
         offset="0"
         style="stop-color:#124379;stop-opacity:1"
         id="stop12569" />
      <stop
         offset="0.389999"
         style="stop-color:#1487cb;stop-opacity:1"
         id="stop12571" />
      <stop
         offset="0.389999"
         style="stop-color:#1487cb;stop-opacity:1"
         id="stop12573" />
      <stop
         offset="0.78022802"
         style="stop-color:#165197;stop-opacity:1"
         id="stop12575" />
      <stop
         offset="0.78022802"
         style="stop-color:#165197;stop-opacity:1"
         id="stop12577" />
      <stop
         offset="1"
         style="stop-color:#165197;stop-opacity:1"
         id="stop12579" />
    </linearGradient>
    <linearGradient id="linearGradient-Ref-06">
      <stop
         offset="0"
         style="stop-color:#33bdf2;stop-opacity:0.69803923"
         id="stop4099" />
      <stop
         offset="1"
         style="stop-color:#1dacd8;stop-opacity:1"
         id="stop4101" />
    </linearGradient>
    <linearGradient id="linearGradient-Ref-07"
                  spreadMethod="pad"
                  gradientTransform="matrix(0,23.576645,23.576645,0,2033.8457,63.546875)"
                  gradientUnits="userSpaceOnUse"
                  x1="0" y1="0" x2="1" y2="0">
      <stop
         offset="0"
         style="stop-color:#136ab4;stop-opacity:1"
         id="stop12723" />
      <stop
         offset="0.60000002"
         style="stop-color:#59caf5;stop-opacity:0.54901963"
         id="stop12725" />
      <stop
         offset="1"
         style="stop-color:#59caf5;stop-opacity:0.23529412"
         id="stop12727" />
    </linearGradient>
    <linearGradient id="linearGradient-Ref-08">
      <stop
         offset="0"
         style="stop-color:#05a1e6;stop-opacity:0.24705882"
         id="stop4064" />
      <stop
         offset="1"
         style="stop-color:#05a1e6;stop-opacity:1"
         id="stop4066" />
    </linearGradient>
    <linearGradient id="linearGradient-Ref-09"
                    spreadMethod="pad"
                    gradientTransform="matrix(0,24.140579,24.140579,0,1991.0918,62.953125)"
                    gradientUnits="userSpaceOnUse"
                    x1="0" y1="0" x2="1" y2="0">
      <stop
         offset="0"
         style="stop-color:#318ed5;stop-opacity:1"
         id="stop12827" />
      <stop
         offset="1"
         style="stop-color:#38a7e4;stop-opacity:1"
         id="stop12829" />
    </linearGradient>
    <linearGradient id="linearGradient-Ref-10"
                    spreadMethod="pad"
                    gradientTransform="matrix(0,23.465958,23.465958,0,1992.6113,62.868164)"
                    gradientUnits="userSpaceOnUse"
                    x1="0" y1="0" x2="1" y2="0">
      <stop
         offset="0"
         style="stop-color:#05a1e6;stop-opacity:1"
         id="stop12907" />
      <stop
         offset="1"
         style="stop-color:#05a1e6;stop-opacity:0.54901963"
         id="stop12909" />
    </linearGradient>
    <linearGradient id="linearGradient-Ref-11"
                    spreadMethod="pad"
                    gradientTransform="matrix(0,19.829102,19.829102,0,1993.873,61.670898)"
                    gradientUnits="userSpaceOnUse"
                    x1="0" y1="0" x2="1" y2="0">
      <stop
         offset="0"
         style="stop-color:#1959a6;stop-opacity:1"
         id="stop12939" />
      <stop
         offset="0.5"
         style="stop-color:#05a1e6;stop-opacity:1"
         id="stop12941" />
      <stop
         offset="0.5"
         style="stop-color:#05a1e6;stop-opacity:1"
         id="stop12943" />
      <stop
         offset="0.91758698"
         style="stop-color:#7ec5ea;stop-opacity:1"
         id="stop12945" />
      <stop
         offset="1"
         style="stop-color:#7ec5ea;stop-opacity:1"
         id="stop12947" />
    </linearGradient>
    <linearGradient id="linearGradient-Ref-12"
                    spreadMethod="pad"
                    gradientTransform="matrix(-3.7910919,21.500351,21.500351,3.7910919,1994.6328,62.9375)"
                    gradientUnits="userSpaceOnUse"
                    x1="0" y1="0" x2="1" y2="0">
      <stop
         offset="0"
         style="stop-color:#165096;stop-opacity:1"
         id="stop12977" />
      <stop
         offset="1"
         style="stop-color:#0d82ca;stop-opacity:1"
         id="stop12979" />
    </linearGradient>
    <linearGradient id="linearGradient-Ref-13"
                    spreadMethod="pad"
                    gradientTransform="matrix(0,11.235931,11.235931,0,2029.8086,75.09668)"
                    gradientUnits="userSpaceOnUse"
                    x1="0" y1="0" x2="1" y2="0">
      <stop
         offset="0"
         style="stop-color:#05a1e6;stop-opacity:1"
         id="stop12997" />
      <stop
         offset="0.87362701"
         style="stop-color:#0495d6;stop-opacity:1"
         id="stop12999" />
      <stop
         offset="1"
         style="stop-color:#0495d6;stop-opacity:1"
         id="stop13001" />
    </linearGradient>
    <linearGradient id="linearGradient-Ref-14"
                    spreadMethod="pad"
                    gradientTransform="matrix(-4.5685425,-25.909454,-25.909454,4.5685425,2035.0898,87.371094)"
                    gradientUnits="userSpaceOnUse"
                    x1="0" y1="0" x2="1" y2="0">
      <stop
         offset="0"
         style="stop-color:#38a7e4;stop-opacity:0.32941177"
         id="stop13073" />
      <stop
         offset="0.96153301"
         style="stop-color:#0e88d3;stop-opacity:1"
         id="stop13075" />
      <stop
         offset="0.96153301"
         style="stop-color:#0e88d3;stop-opacity:1"
         id="stop13077" />
      <stop
         offset="1"
         style="stop-color:#0e88d3;stop-opacity:1"
         id="stop13079" />
    </linearGradient>
    <linearGradient id="linearGradient-Ref-15"
                    spreadMethod="pad"
                    gradientTransform="matrix(0,-24.512451,-24.512451,0,2031,86.461914)"
                    gradientUnits="userSpaceOnUse"
                    x1="0" y1="0" x2="1" y2="0">
      <stop
         offset="0"
         style="stop-color:#168cd4;stop-opacity:1"
         id="stop13133" />
      <stop
         offset="0.5"
         style="stop-color:#1c87cc;stop-opacity:1"
         id="stop13135" />
      <stop
         offset="1"
         style="stop-color:#154b8d;stop-opacity:1"
         id="stop13137" />
    </linearGradient>
    <linearGradient id="linearGradient-Ref-16"
                    spreadMethod="pad"
                    gradientTransform="matrix(5.646286,-2.3419189,-2.3419189,-5.646286,1999.7344,86.96582)"
                    gradientUnits="userSpaceOnUse"
                    x1="0" y1="0" x2="1" y2="0">
      <stop
         offset="0"
         style="stop-color:#97d6ee;stop-opacity:1"
         id="stop13209" />
      <stop
         offset="0.70329303"
         style="stop-color:#55c1ea;stop-opacity:1"
         id="stop13211" />
      <stop
         offset="1"
         style="stop-color:#55c1ea;stop-opacity:1"
         id="stop13213" />
    </linearGradient>
    <linearGradient id="linearGradient-Ref-17"
                    spreadMethod="pad"
                    gradientTransform="matrix(4.4594269,2.0216064,2.0216064,-4.4594269,2002.999,84.154297)"
                    gradientUnits="userSpaceOnUse"
                    x1="0" y1="0" x2="1" y2="0">
      <stop
        offset="0"
        style="stop-color:#7accec;stop-opacity:1"
        id="stop13221" />
      <stop
         offset="1"
         style="stop-color:#3fb7ed;stop-opacity:1"
         id="stop13223" />
    </linearGradient>
    <linearGradient id="linearGradient-Ref-18"
                    spreadMethod="pad"
                    gradientTransform="matrix(0,-23.975632,-23.975632,0,2027.6816,85.106445)"
                    gradientUnits="userSpaceOnUse"
                    x1="0" y1="0" x2="1" y2="0">
      <stop
         offset="0"
         style="stop-color:#1da7e7;stop-opacity:1"
         id="stop13317" />
      <stop
         offset="1"
         style="stop-color:#37abe7;stop-opacity:0"
         id="stop13319" />
    </linearGradient>
  </defs>
  <g id="Logo">
    <g id="reCAPTCHA-Logo">
      <path id="Arrow-DarkBlue"
         d="m 127.0144,56.789934 c -0.002,-0.74594 -0.0197,-1.487868 -0.0531,-2.22623 V 12.467703 L 115.32348,24.1055 C 105.79859,12.44665 91.30878,5.0000009 75.078952,5.0000009 c -16.88992,0 -31.894925,8.0619091 -41.380179,20.5470491 l 19.075776,19.276404 c 1.869433,-3.457368 4.525156,-6.426912 7.72728,-8.669737 3.330304,-2.598878 8.049029,-4.723803 14.576504,-4.723803 0.788568,0 1.397214,0.09214 1.844417,0.265746 8.087544,0.638332 15.097889,5.101652 19.225628,11.579837 L 82.645606,56.778268 c 17.102933,-0.06712 36.423924,-0.106506 44.367314,0.0087"
         style="fill:#1c3aa9;" />
      <path id="Arrow-LightBlue"
         d="m 74.775533,5.0018586 c -0.745941,0.00248 -1.487869,0.019691 -2.22623,0.053129 H 30.453302 L 42.091098,16.692784 C 30.432249,26.217668 22.9856,40.707481 22.9856,56.937309 c 0,16.88992 8.062032,31.894925 20.547049,41.38018 L 62.809053,79.241713 c -3.457368,-1.869434 -6.426913,-4.525156 -8.669738,-7.727281 -2.598754,-3.330304 -4.723802,-8.049029 -4.723802,-14.576504 0,-0.788567 0.09214,-1.397214 0.265745,-1.844417 0.638332,-8.087544 5.101653,-15.097889 11.579837,-19.225628 l 13.502772,13.502772 c -0.06712,-17.102933 -0.10663,-36.423921 0.0087,-44.3673103"
         style="fill:#4285f4;" />
      <path id="Arrow-Grey"
         d="m 22.987457,56.936071 c 0.0025,0.74594 0.01969,1.487868 0.05313,2.226229 v 42.096 L 34.678383,89.620505 C 44.203267,101.27935 58.69308,108.726 74.922908,108.726 c 16.88992,0 31.894922,-8.0619 41.380182,-20.547046 L 97.227311,68.90255 c -1.869433,3.457369 -4.525156,6.426913 -7.72728,8.669738 -3.330304,2.598878 -8.049029,4.723803 -14.576504,4.723803 -0.788568,0 -1.397214,-0.09214 -1.844417,-0.265746 C 64.991566,81.392013 57.981221,76.928693 53.853482,70.450508 L 67.356254,56.947737 c -17.102933,0.06712 -36.423921,0.106506 -44.36731,-0.0087"
         style="fill:#ababab;" />
    </g>
    <g id="DotNET-Logo">
      <path id="DotNET-Logo-01"
            d="m 56.840098,84.413381 c 4.286486,13.108134 5.910439,36.491849 18.444834,36.491849 v 0 c 0.954463,0 1.918514,-0.0934 2.886391,-0.27743 v 0 C 66.776942,117.97103 65.426521,94.841665 58.473599,82.863883 v 0 c -0.54517,0.495457 -1.086475,1.011906 -1.633501,1.549498"
            style="fill:url(#linearGradient-DotNET-01);" />
      <path id="DotNET-Logo-02"
            d="m 58.473599,82.863883 c 6.952922,11.977782 8.303343,35.107147 19.697724,37.763917 v 0 c 0.895165,-0.16448 1.792262,-0.41316 2.691254,-0.72686 v 0 C 70.634999,114.8895 67.807907,92.429702 59.912001,81.616752 v 0 c -0.478217,0.398003 -0.958291,0.814989 -1.438402,1.247131"
            style="fill:url(#linearGradient-DotNET-02);" />
      <path id="DotNET-Logo-03"
            d="m 68.491604,75.740567 c -0.952569,0 -1.918589,0.09332 -2.888285,0.277435 -2.536358,0.478179 -5.112766,1.570299 -7.710318,3.222935 0.709577,0.700066 1.384712,1.501452 2.019758,2.375664 2.64158,-2.192046 5.26592,-3.812096 7.880749,-4.785771 0.981177,-0.363408 1.958678,-0.636864 2.939855,-0.816655 -0.70772,-0.179981 -1.45371,-0.273608 -2.241759,-0.273608"
            style="fill:#14559a;" />
      <path id="DotNET-Logo-04"
            d="m 88.846502,115.28151 c 1.046273,-0.83196 2.094478,-1.75209 3.144578,-2.75619 -4.355371,-13.047097 -5.914266,-36.765467 -18.536681,-36.765467 -0.902819,0 -1.813291,0.08415 -2.72187,0.252465 11.497671,2.859678 12.970516,27.874892 18.113973,39.269192"
            style="fill:url(#linearGradient-DotNET-03);" />
      <path id="DotNET-Logo-05"
            d="m 70.732908,76.013227 c -0.70772,-0.17979 -1.453672,-0.273418 -2.241758,-0.273418 l 4.963666,0.01819 c -0.902857,0 -1.813329,0.08415 -2.721908,0.254474"
            style="fill:#3092c4;" />
      <path id="DotNET-Logo-06"
            d="m 88.626055,118.05321 c -0.493487,-0.47052 -0.962042,-0.98697 -1.423095,-1.53786 -2.123199,1.50342 -4.238706,2.64343 -6.340762,3.38559 0.747809,0.36542 1.53203,0.63706 2.364183,0.80537 0.644519,0.13159 1.312151,0.19892 2.014074,0.19892 2.3585,0 4.223399,-0.27925 5.810976,-1.04055 -0.87406,-0.47253 -1.675559,-1.08461 -2.425376,-1.81147"
            style="fill:#1969bc;" />
      <path id="DotNET-Logo-07"
            d="m 67.792599,76.83299 c 10.298396,5.386336 11.193561,29.77802 19.410816,39.68236 v 0 c 0.550891,-0.38823 1.096023,-0.79953 1.641155,-1.23384 v 0 C 83.70115,103.88721 82.2302,78.869988 70.734462,76.012318 v 0 c -0.981253,0.183618 -1.960611,0.455407 -2.941863,0.820672"
            style="fill:url(#linearGradient-DotNET-04);" />
      <path id="DotNET-Logo-08"
            d="m 59.912001,81.616752 c 7.895906,10.81295 10.722998,33.272748 20.950576,38.284188 v 0 c 2.102132,-0.74216 4.217677,-1.88217 6.340838,-3.38559 v 0 C 78.98616,106.61101 78.090995,82.219326 67.792599,76.83299 v 0 c -2.614754,0.971666 -5.239056,2.591716 -7.880598,4.783762"
            style="fill:url(#linearGradient-DotNET-05);" />
      <path id="DotNET-Logo-09"
            d="m 51.78826,84.097676 c -1.237582,2.798485 -2.501915,6.476638 -4.030232,11.277716 3.039393,-4.282773 6.069238,-7.972444 9.081843,-10.962011 -0.415054,-1.27589 -0.860723,-2.452203 -1.340835,-3.500522 -1.231823,0.943059 -2.473232,2.004715 -3.710776,3.184817"
            style="fill:url(#linearGradient-DotNET-06);" />
      <path id="DotNET-Logo-10"
            d="m 56.596461,80.105979 c -0.363446,0.260119 -0.728711,0.526073 -1.095947,0.807183 0.480036,1.048205 0.923773,2.224632 1.33894,3.50037 0.546912,-0.535583 1.090112,-1.053888 1.633349,-1.549346 -0.583325,-1.002319 -1.203064,-1.9281 -1.876342,-2.758207"
            style="fill:#2b74b1;" />
      <path id="DotNET-Logo-11"
            d="m 57.893001,79.240937 c -0.432293,0.273608 -0.862579,0.562334 -1.296843,0.864549 0.673278,0.830145 1.293016,1.755926 1.87835,2.760216 0.48015,-0.434264 0.960186,-0.853107 1.438403,-1.249101 -0.635047,-0.87406 -1.310181,-1.675598 -2.01991,-2.375664"
            style="fill:#125a9e;" />
      <path id="DotNET-Logo-12"
            d="m 128.1368,74.742377 c -5.82446,22.461615 -17.98969,40.502873 -28.188584,45.051453 0,0 -0.01932,0 -0.01932,0 -0.185512,0.0841 -0.369168,0.16069 -0.550853,0.23518 -0.02501,0.0152 -0.04774,0.0171 -0.06703,0.0262 -0.05358,0.0216 -0.103289,0.0383 -0.156867,0.0597 -0.02501,0.0152 -0.04774,0.0201 -0.07067,0.0292 -0.08601,0.0307 -0.170242,0.0567 -0.254397,0.0903 -0.03638,0.0152 -0.0707,0.0246 -0.105298,0.0368 -0.03827,0.0152 -0.08234,0.0292 -0.126251,0.0413 -0.03823,0.0152 -0.07832,0.0261 -0.122425,0.0428 -0.03637,0.0151 -0.07464,0.0216 -0.108935,0.0367 -0.07468,0.0216 -0.143378,0.0398 -0.21806,0.0658 -0.03069,0 -0.05922,0.0167 -0.09181,0.0246 -0.04592,0.0151 -0.09764,0.0261 -0.147357,0.0398 -0.03448,0.0152 -0.06305,0.0201 -0.09946,0.0277 -0.05172,0.0152 -0.109125,0.0292 -0.160694,0.0413 -0.06885,0.0152 -0.13004,0.0292 -0.195098,0.0429 0.460977,0.17028 0.941088,0.2563 1.459469,0.2563 9.67096,0 19.42211,-17.33154 35.55641,-46.1532 h -6.33508 z"
            style="fill:url(#linearGradient-DotNET-07);" />
      <path id="DotNET-Logo-13"
            d="m 45.657828,76.652101 c 0.0061,0 0.01364,-0.01516 0.01743,-0.01516 0.0076,0 0.01932,0 0.02311,-0.01516 0,0 0.0076,0 0.01212,0 0.05354,-0.01819 0.10329,-0.03978 0.156829,-0.05968 0.01364,0 0.02084,0 0.03069,-0.01516 0.01364,0 0.0269,-0.01516 0.04024,-0.01705 0.0574,-0.01819 0.11477,-0.03979 0.168348,-0.05968 0,0 0.0061,0 0.0091,0 0.128222,-0.03823 0.246744,-0.08567 0.371063,-0.130041 0.01743,0 0.03448,-0.01516 0.0554,-0.01516 0.05172,-0.01667 0.105298,-0.03524 0.158761,-0.04744 0.02501,-0.01516 0.04975,-0.01516 0.07267,-0.02311 0.0554,-0.01667 0.109125,-0.03524 0.160694,-0.04744 0.02311,0 0.04407,-0.01516 0.06119,-0.01667 0.177896,-0.04895 0.35386,-0.09488 0.531756,-0.137732 0.02501,0 0.04592,-0.01516 0.07267,-0.01667 0.05157,-0.01516 0.0995,-0.02311 0.154935,-0.03069 0.02311,-0.01516 0.04975,-0.01516 0.07654,-0.02311 0.05157,-0.01516 0.101281,-0.01667 0.156829,-0.02918 0.01364,0 0.02084,0 0.03637,0 0.107117,-0.0216 0.216166,-0.03978 0.323282,-0.05968 0.01933,0 0.04392,0 0.06502,0 0.05157,-0.01516 0.09749,-0.01667 0.149213,-0.02614 0.02842,0 0.05737,-0.01516 0.08416,-0.01516 0.04774,0 0.09564,-0.01516 0.143378,-0.0216 0.02501,0 0.04971,0 0.07851,-0.01516 0.112763,-0.01516 0.229503,-0.02122 0.348101,-0.03069 -0.334726,-0.03221 -0.679037,-0.05358 -1.02907,-0.05358 -10.891316,0 -25.89701,20.208376 -32.656748,46.378912 0,0 0.493495,0 1.302599,0 2.163344,-3.85798 4.106722,-7.50756 5.883688,-10.9334 C 27.450816,92.639859 37.093099,79.998272 45.6585,76.649085"
            style="fill:url(#linearGradient-DotNET-08);" />
      <path id="DotNET-Logo-14"
            d="m 51.788374,84.097676 c 1.23762,-1.180102 2.478953,-2.241758 3.710776,-3.184665 -0.28111,-0.615912 -0.571845,-1.185938 -0.883722,-1.708184 -0.996485,1.208861 -1.906957,2.804131 -2.827054,4.892849"
            style="fill:#0d82ca;" />
      <path id="DotNET-Logo-15"
            d="m 52.683084,76.805292 c 0.711547,0.596777 1.348412,1.417411 1.931889,2.400596 0.183618,-0.225714 0.369244,-0.434264 0.562372,-0.629362 -0.809039,-0.755501 -1.683251,-1.375239 -2.631993,-1.841938 0.03827,0.02122 0.0765,0.03827 0.116286,0.05509 0,0 0.01516,0.01516 0.0216,0.01516"
            style="fill:#0d82ca;" />
      <path id="DotNET-Logo-16"
            d="M 22.716227,111.17872 C 32.647338,92.041362 37.352758,79.929674 45.658018,76.651191 v 0 C 37.094533,80.0025 27.450338,92.643936 22.716227,111.17872"
            style="fill:url(#linearGradient-DotNET-09);" />
      <path id="DotNET-Logo-17"
            d="m 55.176701,78.576033 c -0.19309,0.197107 -0.376708,0.403686 -0.562334,0.6294 0.31184,0.522095 0.60246,1.090264 0.885692,1.708032 0.367236,-0.28111 0.732501,-0.547064 1.095948,-0.807183 -0.449421,-0.554718 -0.923811,-1.069196 -1.419306,-1.530249"
            style="fill:#127bca;" />
      <path id="DotNET-Logo-18" 
            d="m 27.224631,122.02611 v 0 c -0.06121,0.0152 -0.122417,0.0152 -0.179802,0.0216 -0.01913,0 -0.02296,0 -0.03444,0 -0.05172,0 -0.105279,0.0152 -0.153021,0.0152 0,0 -0.01914,0 -0.02493,0 -0.124255,0.0151 -0.246747,0.0151 -0.365341,0.0246 h -0.03825 c 10.051618,-0.28127 14.646086,-5.31385 16.926114,-12.61298 1.732964,-5.53358 3.156097,-10.195071 4.403227,-14.10663 -4.210023,5.92578 -8.43918,12.98957 -12.691262,20.90276 -2.050494,3.81406 -5.16831,5.40733 -7.842366,5.74796"
            style="fill:url(#linearGradient-DotNET-10);" />
      <path id="DotNET-Logo-19"
            d="m 27.224631,122.02229 v 0 c 2.674056,-0.34064 5.791875,-1.93204 7.842366,-5.74797 v 0 c 4.252078,-7.91121 8.48313,-14.97697 12.689326,-20.902755 v 0 c 1.530211,-4.803048 2.792649,-8.479231 4.032126,-11.277716 v 0 C 43.404778,92.073948 34.988571,105.34293 27.224631,122.01846"
            style="fill:url(#linearGradient-DotNET-11);" />
      <path id="DotNET-Logo-20" 
            d="m 22.715754,111.17918 c -1.776891,3.42584 -3.720265,7.07542 -5.883688,10.9334 0.935424,0 2.289663,0 3.789278,0 0.501148,-3.83138 1.2127,-7.48475 2.09441,-10.93158"
            style="fill:#05a1e6;" />
      <path id="DotNET-Logo-21"
            d="m 48.867654,75.825025 c -0.03069,0 -0.05358,0.01516 -0.08033,0.01516 v 0 c -0.04592,0.01516 -0.09382,0.01516 -0.14156,0.02008 v 0 c -0.02842,0 -0.0554,0 -0.08416,0.01516 v 0 c -0.05172,0.01516 -0.09946,0.01667 -0.149213,0.02614 v 0 c -0.02311,0 -0.04589,0 -0.06502,0.01516 v 0 c -0.109125,0.01819 -0.216166,0.03827 -0.323283,0.05661 v 0 c -0.01895,0 -0.02501,0 -0.03637,0 v 0 c -0.0554,0.01516 -0.10526,0.02311 -0.156829,0.03069 v 0 c -0.0269,0.01516 -0.05358,0.01516 -0.07851,0.02122 v 0 c -0.05157,0.01516 -0.10329,0.0216 -0.153002,0.03069 v 0 c -0.0269,0.01516 -0.04774,0.01516 -0.07271,0.01667 v 0 c -0.177859,0.04285 -0.35386,0.08878 -0.531757,0.137732 v 0 c -0.01895,0 -0.03823,0.01516 -0.06119,0.01819 v 0 c -0.05354,0.01516 -0.10526,0.03069 -0.160656,0.04744 v 0 c -0.02311,0.01516 -0.04975,0.01516 -0.07271,0.02122 v 0 c -0.05354,0.01516 -0.107117,0.03069 -0.158762,0.04744 v 0 c -0.02084,0 -0.03823,0.01516 -0.05737,0.01516 v 0 c -0.122424,0.04588 -0.242916,0.09181 -0.369168,0.130078 v 0 c 0,0 0,0 0,0 v 0 c -0.05354,0.01667 -0.110944,0.03823 -0.16831,0.05812 v 0 c -0.02311,0.01516 -0.04407,0.01857 -0.0707,0.02918 v 0 c -0.05358,0.01667 -0.107116,0.03827 -0.156867,0.05816 v 0 c -0.01894,0.01516 -0.03823,0.01667 -0.05157,0.02463 v 0 c -8.305241,3.278483 -13.01066,15.39017 -22.941771,34.527525 v 0 c -0.88179,3.44684 -1.595255,7.10021 -2.094486,10.93144 v 0 h 0.531749 c 1.497701,0 1.920424,-0.0152 3.643831,-0.0152 v 0 h 0.08799 0.256311 0.08799 0.02493 0.08798 0.04973 0.03444 0.06886 0.214233 0.21423 0.179798 0.04775 c 0.10329,0 0.208489,0 0.315606,0 v 0 c 0.11859,-0.0152 0.241011,-0.0152 0.365341,-0.0246 v 0 c 0,0 0.01914,0 0.02296,0 v 0 c 0.05172,0 0.103289,-0.0152 0.153021,-0.0152 v 0 c 0.01913,0 0.02095,0 0.03626,0 v 0 c 0.05539,0 0.11859,-0.0152 0.179798,-0.0216 v 0 0 c 7.763944,-16.67553 16.180129,-29.944512 24.5638,-37.924611 v 0 c 0.921954,-2.088718 1.830532,-3.683988 2.825198,-4.890878 v 0 C 54.041651,78.243733 53.40471,77.421242 52.693163,76.824313 v 0 c 0,0 -0.01932,0 -0.02084,-0.01516 v 0 c -0.04024,-0.01667 -0.07832,-0.03675 -0.11856,-0.05661 v 0 c -0.04028,-0.0216 -0.07468,-0.03827 -0.116627,-0.05968 v 0 c -0.03637,-0.01516 -0.07847,-0.03524 -0.11477,-0.05509 v 0 c -0.04971,-0.01516 -0.08995,-0.03675 -0.133868,-0.05665 v 0 c -0.03637,-0.01516 -0.06889,-0.03069 -0.105298,-0.04589 v 0 c -0.07468,-0.02918 -0.149175,-0.05968 -0.219955,-0.09181 v 0 c -0.03259,-0.01516 -0.06305,-0.02311 -0.09382,-0.03524 v 0 c -0.05157,-0.01857 -0.110943,-0.04285 -0.164483,-0.06582 v 0 c -0.0269,-0.01516 -0.0574,-0.01819 -0.08798,-0.02918 v 0 c -0.07836,-0.02614 -0.154934,-0.05354 -0.227646,-0.07805 v 0 c -0.01895,0 -0.01895,0 -0.01895,0 v 0 c -0.08802,-0.02918 -0.174069,-0.05047 -0.263983,-0.07499 v 0 c -0.02084,-0.01516 -0.03827,-0.01516 -0.05922,-0.01819 v 0 c -0.07851,-0.0216 -0.147357,-0.04286 -0.221888,-0.06275 v 0 c -0.01894,0 -0.03637,-0.01516 -0.05157,-0.01516 v 0 c -0.179791,-0.04744 -0.365341,-0.08567 -0.552785,-0.120871 v 0 c -0.01932,0 -0.03823,-0.01516 -0.05737,-0.01516 v 0 c -0.08033,-0.01516 -0.158761,-0.02917 -0.239089,-0.03827 v 0 c -0.01933,-0.01516 -0.03069,-0.01516 -0.04774,-0.01516 v 0 c -0.09564,-0.01516 -0.189377,-0.02614 -0.283118,-0.03675 v 0 c -0.01895,0 -0.03259,0 -0.04971,0 v 0 c -0.0765,-0.01516 -0.147205,-0.01667 -0.218061,-0.02463 v 0 c -0.120568,0.01516 -0.235262,0.0216 -0.348138,0.03221"
            style="fill:url(#linearGradient-DotNET-12);" />
      <path id="DotNET-Logo-22"
            d="m 105.38624,87.177234 c -1.91086,6.120883 -3.45832,11.170599 -4.80487,15.325146 v 0 c 5.24288,-7.21497 10.40737,-16.291167 15.32519,-26.765337 v 0 c -5.73649,1.801659 -8.79691,5.925746 -10.52032,11.440191"
            style="fill:url(#linearGradient-DotNET-13);" />
      <path id="DotNET-Logo-23"
            d="m 100.74775,119.41128 c -0.26778,0.13618 -0.53555,0.26581 -0.799534,0.38255 10.198894,-4.54858 22.364124,-22.589838 28.188584,-45.051453 h -1.18025 c -13.38174,23.903844 -17.68547,39.906103 -26.2088,44.668903"
            style="fill:url(#linearGradient-DotNET-14);" />
      <path id="DotNET-Logo-24"
            d="m 94.088021,117.40301 c 2.218797,-2.70846 4.026291,-7.31243 6.493919,-14.90047 -2.846344,3.9097 -5.711517,7.27052 -8.578849,10.01145 0,0.0151 0,0.0151 -0.01516,0.0246 0.625574,1.87453 1.312151,3.52898 2.094554,4.86409"
            style="fill:#079ae1;" />
      <path id="DotNET-Logo-25"
            d="m 94.088021,117.40301 c -0.755614,0.92199 -1.55503,1.62403 -2.444549,2.1443 -0.195099,0.11326 -0.392016,0.21992 -0.59295,0.31753 0.93927,0.50682 1.964361,0.84545 3.111992,0.98117 v 0 0 c 0.168196,0.0167 0.334687,0.0322 0.508832,0.0444 h 0.03069 c 0.07805,0 0.160694,0 0.244849,0.0152 h 0.03372 c 0.08419,0 0.1685,0 0.250646,0 0.09029,0 0.179829,0 0.269781,0 0.02918,0 0.05665,0 0.08419,0 0.06119,0 0.126972,0 0.191272,0 0.03069,0 0.06271,0 0.09332,-0.0152 0.05968,0 0.122425,0 0.183618,-0.0151 0.01516,0 0.01516,0 0.0216,0 0.02463,0 0.04588,0 0.06885,0 0.06275,0 0.131594,-0.0152 0.198926,-0.0216 0,0 0.01516,0 0.01516,0 0.02008,0 0.0413,-0.0152 0.06119,-0.0152 0.0704,-0.0152 0.143871,-0.0216 0.212415,-0.0322 0.02311,0 0.03978,0 0.06275,0 0.07802,-0.0151 0.158685,-0.0246 0.239013,-0.0398 h 0.01516 c 0.01516,0 0.01667,0 0.02311,0 0.160694,-0.0307 0.317523,-0.0612 0.476209,-0.10098 -1.315978,-0.48204 -2.417723,-1.61823 -3.366465,-3.23642"
            style="fill:#1969bc;" />
      <path id="DotNET-Logo-26"
            d="m 75.285159,120.90554 c 0.954539,0 1.91859,-0.0933 2.886429,-0.27926 0.895203,-0.16251 1.792225,-0.41134 2.691217,-0.72503 0.74796,0.36541 1.532181,0.63705 2.362326,0.80536 0.644557,0.1316 1.314008,0.19893 2.016082,0.19893 z"
            style="fill:#1e5cb3;" />
      <path id="DotNET-Logo-27"
            d="m 85.241365,120.90554 c 2.356529,0 4.223398,-0.27926 5.809157,-1.04055 0.939118,0.50682 1.964361,0.84545 3.111992,0.98132 v 0 0 c 0.168347,0.0167 0.334839,0.0322 0.508832,0.0444 h 0.03069 c 0.07805,0 0.160694,0 0.244849,0.0152 h 0.03524 c 0.08416,0 0.16831,0 0.250646,0 H 85.23462 Z"
            style="fill:#1e5cb3;" />
      <path id="DotNET-Logo-28"
            d="m 95.23872,120.90554 c 0.09181,0 0.181799,0 0.271637,0 0.02614,0 0.05661,0 0.08415,0 0.06119,0 0.123941,0 0.189453,0 0.03221,0 0.06271,0 0.09333,-0.0152 0.05968,0 0.122424,0 0.185626,-0.0151 0.01516,0 0.01516,0 0.02008,0 0.02463,0 0.04744,0 0.0704,0 0.06271,0 0.131594,-0.0152 0.197068,-0.0212 0,0 0.01516,0 0.01667,0 0.02008,0 0.03979,-0.0152 0.05968,-0.0152 0.0704,-0.0152 0.143871,-0.0212 0.212263,-0.0322 0.02311,0 0.0413,0 0.06578,-0.0152 0.07805,-0.0152 0.158837,-0.0231 0.239203,-0.0382 h 0.01516 c 0.01516,0 0.01667,0 0.02311,0 0.160694,-0.0307 0.317523,-0.0612 0.476209,-0.10102 v 0 c 0.460901,0.17017 0.941088,0.25633 1.459356,0.25633 l -3.676334,0.0152 z"
            style="fill:#1d60b5;" />
      <path id="DotNET-Logo-29"
            d="m 91.994073,112.53892 c 0,0 0,-0.0152 0,-0.0152 -1.050062,1.00414 -2.098267,1.92427 -3.144615,2.75624 -0.547064,0.43426 -1.092121,0.84545 -1.642974,1.23383 0.460901,0.55085 0.929608,1.0673 1.423095,1.53786 0.749817,0.72671 1.551165,1.33894 2.425376,1.81133 0.198926,-0.098 0.397851,-0.20476 0.59098,-0.31753 0.891338,-0.52027 1.690905,-1.2222 2.446519,-2.14415 -0.782403,-1.33511 -1.469018,-2.98976 -2.094554,-4.86424"
            style="fill:#175fab;" />
      <path id="DotNET-Logo-30" 
            d="m 123.21902,74.742377 h -4.96173 c -0.16649,0 -0.33101,0 -0.49353,0 v 0 c -0.15883,0 -0.31184,0 -0.4667,0 v 0 h -0.0182 c -0.32135,0.01516 -0.63304,0.02614 -0.94109,0.04592 v 0 c -0.14535,0.311877 -0.29456,0.623717 -0.43809,0.937413 v 0 c -4.91767,10.47417 -10.08216,19.550367 -15.32504,26.76534 v 0 c -2.465577,7.5879 -4.275042,12.19202 -6.493876,14.90052 v 0 c 0.948742,1.61819 2.052419,2.75619 3.36457,3.23824 v 0 c 0.03827,-0.0152 0.06885,-0.0152 0.10329,-0.0231 v 0 c 0,0 0.01895,0 0.02122,0 v 0 c 0.02311,0 0.04774,-0.0152 0.07271,-0.0152 v 0 c 0.05354,-0.0152 0.110944,-0.0246 0.164483,-0.0413 v 0 c 0.03448,-0.0152 0.06305,-0.0167 0.09764,-0.0277 v 0 c 0.04971,-0.0152 0.101282,-0.0262 0.147205,-0.0383 v 0 c 0.03069,-0.0152 0.06119,-0.0201 0.09181,-0.0261 v 0 c 0.0765,-0.0246 0.145348,-0.0429 0.218061,-0.0658 v 0 c 0.03448,-0.0152 0.07085,-0.0277 0.109087,-0.0368 v 0 c 0.0421,-0.0152 0.08415,-0.0261 0.122424,-0.0444 v 0 c 0.04407,-0.0152 0.08798,-0.0231 0.126251,-0.0398 v 0 c 0.03448,-0.0152 0.0707,-0.0246 0.10329,-0.0383 v 0 c 0.08597,-0.0307 0.170243,-0.0566 0.256292,-0.0903 v 0 c 0.02311,0 0.04592,-0.0212 0.07085,-0.0262 v 0 c 0.05157,-0.0216 0.105147,-0.0383 0.156867,-0.0612 v 0 c 0.01895,-0.0152 0.04206,-0.0167 0.06684,-0.0246 v 0 c 0.179829,-0.075 0.365341,-0.15148 0.550892,-0.23519 v 0 c 0,0 0.01932,0 0.01932,0 v 0 c 0.263944,-0.11628 0.531754,-0.24681 0.797634,-0.38254 v 0 c 8.52523,-4.76281 12.82903,-20.765066 26.21078,-44.66891 v 0 h -3.73757 z"
            style="fill:url(#linearGradient-DotNET-15);" />
      <path id="DotNET-Logo-31"
            d="m 49.216171,75.792742 c 0.02122,0 0.04024,0 0.06119,0.01516 0.05157,0 0.10329,0 0.154935,0.01667 0.01932,0 0.03637,0 0.05172,0 0.09367,0.01516 0.187444,0.02311 0.28308,0.03675 0.01743,0 0.03259,0 0.04774,0.01516 0.07836,0.01516 0.158762,0.02766 0.23909,0.03978 0.01743,0 0.04028,0.01516 0.05937,0.01516 0.183655,0.03675 0.3711,0.07498 0.550891,0.122424 0.01705,0 0.03448,0.01516 0.04975,0.01516 0.0765,0.01819 0.145348,0.0413 0.221849,0.06271 0.02311,0 0.04009,0.01516 0.06123,0.01857 0.08995,0.02311 0.174069,0.04592 0.262051,0.07498 0.0038,0 0.0091,0 0.01932,0.01516 0.07449,0.02273 0.151032,0.05202 0.229503,0.07802 0.03069,0.01516 0.05922,0.0216 0.08798,0.02918 0.05358,0.02311 0.112952,0.04588 0.164521,0.06733 0.03069,0 0.06119,0.02122 0.09363,0.03221 0.0707,0.03221 0.145386,0.06119 0.21806,0.09181 0.03827,0.01516 0.0707,0.03221 0.107117,0.04589 0.0421,0.0216 0.08601,0.04134 0.131935,0.05665 0.03823,0.01819 0.08033,0.03823 0.116589,0.05505 0.04024,0.0216 0.07836,0.03827 0.116741,0.05968 0.948742,0.466736 1.822878,1.088445 2.631994,1.842089 0.298388,-0.313697 0.610152,-0.594958 0.933434,-0.847423 -1.769338,-1.254785 -3.773902,-1.970159 -6.08644,-1.970159 -0.267811,0 -0.535583,0.01516 -0.807183,0.03524"
            style="fill:#7dcbec;" />
      <path id="DotNET-Logo-32"
            d="m 55.176739,78.576033 c 0.495419,0.460901 0.969772,0.975531 1.419268,1.530249 0.434188,-0.302215 0.864587,-0.592988 1.296881,-0.864587 -0.566199,-0.566199 -1.162976,-1.074994 -1.784647,-1.513085 -0.323244,0.250646 -0.633114,0.533727 -0.931502,0.847423"
            style="fill:#5ec5ed;" />
      <path id="DotNET-Logo-33" 
            d="m 49.215777,75.792426 c 0.271613,-0.02295 0.539401,-0.03252 0.807189,-0.03252 2.312542,0 4.317127,0.715377 6.086441,1.968242 1.866865,-1.472834 4.123936,-1.98737 7.25897,-1.98737 H 48.186705 c 0.350038,0 0.692424,0.02104 1.029072,0.05165"
            style="fill:url(#linearGradient-DotNET-16);" />
      <path id="DotNET-Logo-34"
            d="m 63.368377,75.740781 c -3.135034,0 -5.392105,0.514536 -7.25897,1.98737 0.619738,0.438025 1.216523,0.946822 1.782703,1.513003 2.599458,-1.652635 5.174049,-2.746741 7.712297,-3.224934 0.967863,-0.181713 1.933813,-0.275439 2.886373,-0.275439 z" 
            style="fill:url(#linearGradient-DotNET-17);" />
      <path id="DotNET-Logo-35"
            d="m 100.58137,102.50621 c 1.34849,-4.158377 2.89207,-9.206085 4.80676,-15.328976 1.72535,-5.516415 4.78005,-9.64035 10.51642,-11.440191 0.15152,-0.30805 0.2946,-0.625574 0.44195,-0.937413 -9.35162,0.560515 -13.7223,5.317489 -15.922,12.362334 -3.846575,12.299094 -6.176354,20.271536 -8.420007,25.351866 2.865324,-2.73911 5.730648,-6.10174 8.576877,-10.00762"
            style="fill:url(#linearGradient-DotNET-18);" />
    </g>
  </g>
  <g id="Text">
    <path id="reCAPTCHA-Text"
          d="m 30.00414,131.17003 c -0.714921,0 -1.355865,0.13559 -1.9229,0.40675 -0.567001,0.26502 -1.047709,0.64405 -1.442158,1.13708 -0.388274,0.49305 -0.687178,1.0909 -0.896746,1.79343 -0.203386,0.69642 -0.305079,1.47603 -0.305079,2.33884 v 2.48679 c 0,0.86896 0.101693,1.6517 0.305079,2.34814 0.20954,0.69642 0.505367,1.29112 0.887507,1.78419 0.382141,0.49306 0.84433,0.87204 1.386658,1.13709 0.542335,0.26504 1.152478,0.39752 1.830445,0.39752 0.696424,0 1.306595,-0.1017 1.830453,-0.30508 0.530019,-0.20338 0.973731,-0.49613 1.331226,-0.8782 0.357454,-0.38828 0.631713,-0.85665 0.822776,-1.40521 0.197218,-0.54851 0.314317,-1.17095 0.351292,-1.8674 H 32.47241 c -0.04308,0.53619 -0.117092,0.99536 -0.221869,1.37742 -0.104771,0.37595 -0.258852,0.68719 -0.462231,0.9337 -0.197218,0.24036 -0.45607,0.41909 -0.776583,0.5362 -0.31431,0.11093 -0.702605,0.16639 -1.164801,0.16639 -0.493045,0 -0.912139,-0.10785 -1.257249,-0.32356 -0.345131,-0.22186 -0.625544,-0.52386 -0.841246,-0.90598 -0.209547,-0.38212 -0.363622,-0.82893 -0.462231,-1.34047 -0.09245,-0.51155 -0.138667,-1.06311 -0.138667,-1.65478 v -2.50527 c 0,-0.63477 0.05553,-1.21106 0.166404,-1.72876 0.117093,-0.51769 0.292742,-0.95833 0.526935,-1.32198 0.234199,-0.36363 0.530026,-0.64405 0.887514,-0.84125 0.357454,-0.20338 0.782737,-0.30507 1.275726,-0.30507 0.412926,0 0.767275,0.0616 1.063109,0.1849 0.295826,0.11709 0.542348,0.30199 0.739559,0.55466 0.197218,0.24653 0.348215,0.56084 0.452985,0.94294 0.10477,0.38212 0.175643,0.83817 0.212618,1.36818 h 1.710282 c -0.03077,-0.72723 -0.144829,-1.37125 -0.342046,-1.93214 -0.197218,-0.56084 -0.471477,-1.03231 -0.822776,-1.41444 -0.351292,-0.3821 -0.77966,-0.67178 -1.284964,-0.86897 -0.499206,-0.19722 -1.075425,-0.29582 -1.72876,-0.29582 z m 41.748842,0 c -0.714921,0 -1.355864,0.13559 -1.9229,0.40675 -0.567001,0.26502 -1.047708,0.64405 -1.442158,1.13708 -0.388274,0.49305 -0.687184,1.0909 -0.896752,1.79343 -0.203372,0.69642 -0.305059,1.47603 -0.305059,2.33884 v 2.48679 c 0,0.86896 0.101687,1.6517 0.305059,2.34814 0.209547,0.69642 0.50538,1.29112 0.887514,1.78419 0.382113,0.49304 0.844323,0.87204 1.386657,1.13709 0.542342,0.26501 1.152479,0.39752 1.830446,0.39752 0.696416,0 1.306526,-0.1017 1.830453,-0.30508 0.530012,-0.20338 0.973731,-0.49613 1.331226,-0.8782 0.357461,-0.38828 0.631712,-0.85665 0.822769,-1.40521 0.197224,-0.54851 0.314331,-1.17095 0.351299,-1.8674 h -1.710214 c -0.04308,0.53619 -0.117093,0.99536 -0.22187,1.37742 -0.10477,0.37595 -0.258851,0.68719 -0.462223,0.9337 -0.197218,0.24036 -0.45607,0.41909 -0.776583,0.5362 -0.314311,0.11093 -0.702605,0.16639 -1.164802,0.16639 -0.493044,0 -0.912145,-0.10785 -1.257249,-0.32356 -0.345131,-0.22186 -0.625557,-0.52386 -0.841245,-0.90598 -0.209547,-0.38212 -0.363622,-0.82893 -0.462238,-1.34047 -0.09243,-0.51155 -0.138661,-1.06311 -0.138661,-1.65478 v -2.50527 c 0,-0.63477 0.05553,-1.21106 0.166398,-1.72876 0.117106,-0.51769 0.292749,-0.95833 0.526948,-1.32198 0.234193,-0.36363 0.530027,-0.64405 0.887446,-0.84125 0.35746,-0.20338 0.782737,-0.30507 1.275726,-0.30507 0.412919,0 0.767268,0.0616 1.063108,0.1849 0.295827,0.11709 0.542349,0.30199 0.739553,0.55466 0.19721,0.24653 0.348208,0.56084 0.452978,0.94294 0.104777,0.38212 0.17565,0.83817 0.212631,1.36818 h 1.710214 c -0.03084,-0.72723 -0.144829,-1.37125 -0.342054,-1.93214 -0.197218,-0.56084 -0.471469,-1.03231 -0.822768,-1.41444 -0.3513,-0.38213 -0.77966,-0.67178 -1.284972,-0.86897 -0.499199,-0.19722 -1.075424,-0.29582 -1.728753,-0.29582 z m -32.004504,0.18489 -4.335719,13.45996 h 1.737998 l 1.044632,-3.51294 h 4.548336 l 1.063109,3.51294 h 1.737991 l -4.344951,-13.45996 z m 7.626516,0 v 13.45996 h 1.691737 v -5.26941 h 2.59772 c 0.647119,0 1.220295,-0.0894 1.719515,-0.2681 0.499205,-0.18489 0.918307,-0.4499 1.257256,-0.79505 0.345131,-0.34514 0.603975,-0.77035 0.776506,-1.27573 0.178727,-0.51154 0.268097,-1.09082 0.268097,-1.738 0,-0.59781 -0.08936,-1.14632 -0.268097,-1.64554 -0.172565,-0.50538 -0.428333,-0.93986 -0.767268,-1.30351 -0.338969,-0.36978 -0.761114,-0.65636 -1.266494,-0.85973 -0.499206,-0.20338 -1.07234,-0.30506 -1.719515,-0.30506 z m 9.605062,0 v 1.46064 h 3.531421 v 11.99932 h 1.691736 v -11.99932 h 3.54066 v -1.46064 z m 21.234856,0 v 13.45996 h 1.691736 v -6.22159 h 5.417298 v 6.22159 h 1.700975 v -13.45996 h -1.700975 v 5.78711 h -5.417298 v -5.78711 z m 15.225745,0 -4.335719,13.45996 h 1.737998 l 1.044632,-3.51294 h 4.548336 l 1.063109,3.51294 h 1.737991 l -4.344951,-13.45996 z m -44.374065,1.46064 h 2.597714 c 0.412927,0 0.764198,0.0739 1.05387,0.22187 0.295827,0.1479 0.536188,0.34511 0.721083,0.59164 0.191049,0.24652 0.329724,0.5331 0.416003,0.85973 0.09245,0.32047 0.138675,0.65328 0.138675,0.99843 0,0.38211 -0.04619,0.7334 -0.138675,1.05387 -0.08628,0.31432 -0.224954,0.58858 -0.416003,0.82277 -0.184895,0.22803 -0.425249,0.40676 -0.721083,0.53619 -0.289658,0.12942 -0.640957,0.19413 -1.05387,0.19413 h -2.597714 z m -8.597246,0.90598 1.839684,6.1199 h -3.670061 z m 53.692179,0 1.839684,6.1199 h -3.670061 z m -79.631582,0.90599 c -0.425249,0 -0.791976,0.10785 -1.100132,0.32356 -0.301988,0.21571 -0.554678,0.50845 -0.75803,0.8782 l -0.02773,-1.01692 h -1.590043 v 10.00259 h 1.636305 v -7.1555 c 0.154074,-0.42526 0.37286,-0.76112 0.656357,-1.00768 0.289665,-0.24652 0.656371,-0.36978 1.100132,-0.36978 0.141752,0 0.268097,0.006 0.379029,0.0185 0.110931,0.006 0.231108,0.0216 0.360537,0.0462 l -0.0093,-1.59004 c -0.02462,-0.0124 -0.06473,-0.0247 -0.120184,-0.037 -0.04924,-0.0185 -0.10477,-0.034 -0.166404,-0.0462 -0.06168,-0.0123 -0.126338,-0.0216 -0.194134,-0.0278 -0.06168,-0.0123 -0.117099,-0.0185 -0.166404,-0.0185 z m 5.500513,0 c -0.474553,0 -0.9337,0.0832 -1.377419,0.2496 -0.44374,0.16641 -0.838168,0.44066 -1.183278,0.82277 -0.338963,0.37594 -0.613221,0.86897 -0.822769,1.47911 -0.20954,0.60398 -0.31431,1.34663 -0.31431,2.22798 v 1.12785 c 0,0.76419 0.08936,1.42676 0.26809,1.98757 0.178727,0.5608 0.434494,1.02615 0.767268,1.39596 0.33897,0.36362 0.748798,0.63479 1.22954,0.81354 0.480715,0.17873 1.019994,0.26809 1.617829,0.26809 0.431417,0 0.816614,-0.0432 1.155563,-0.12942 0.345124,-0.0863 0.650203,-0.19723 0.915223,-0.33281 0.265013,-0.14176 0.493044,-0.30199 0.684093,-0.48071 0.191057,-0.17873 0.354377,-0.36363 0.48996,-0.55468 l -0.850484,-1.0354 c -0.135583,0.1664 -0.280419,0.32048 -0.434494,0.46223 -0.154075,0.13558 -0.323556,0.25577 -0.508451,0.36054 -0.184895,0.0986 -0.388274,0.17565 -0.610144,0.23112 -0.221863,0.0555 -0.471476,0.0832 -0.748791,0.0832 -0.758037,0 -1.340472,-0.24345 -1.747237,-0.73032 -0.400597,-0.48688 -0.600898,-1.26649 -0.600898,-2.3389 v -0.23113 h 5.583729 v -0.95217 c 0,-0.76419 -0.06472,-1.43908 -0.194134,-2.0246 -0.129422,-0.58549 -0.335885,-1.0785 -0.619389,-1.47911 -0.283497,-0.4006 -0.647126,-0.7026 -1.090893,-0.90598 -0.44374,-0.20955 -0.979893,-0.31432 -1.60859,-0.31432 z m 0,1.40521 c 0.357454,0 0.65328,0.0647 0.887508,0.19413 0.234192,0.12942 0.419087,0.31123 0.554678,0.54542 0.141752,0.2342 0.243438,0.51463 0.305072,0.84125 0.06784,0.32047 0.110924,0.67484 0.129415,1.0631 v 0.22187 h -3.938185 c 0.02462,-0.56084 0.09245,-1.02615 0.203386,-1.39596 0.110938,-0.36982 0.255767,-0.66254 0.434494,-0.87821 0.184895,-0.22186 0.397513,-0.37593 0.63788,-0.46222 0.240354,-0.0863 0.502283,-0.12942 0.785815,-0.12942 z"
          style="fill:#a6a6a6;" />
    <path id="DotNET-Text"
          d="m 106.49786,131.16987 v 13.62079 h 1.59641 v -9.84046 c 0,-0.95621 -0.025,-1.57929 -0.0756,-1.87058 h 0.0567 c 0.11399,0.29762 0.25893,0.58262 0.43624,0.85493 l 7.01096,10.85611 h 1.95702 v -13.62079 h -1.59641 v 9.5933 c 0,0.94354 0.0312,1.61168 0.0945,2.00429 h -0.0378 c -0.0823,-0.16465 -0.26608,-0.46838 -0.55105,-0.91166 l -6.81914,-10.68593 z m 14.5527,0 v 13.62079 h 7.21896 v -1.44379 h -5.6239 v -4.76762 h 4.92158 v -1.43434 h -4.92158 v -4.53125 h 5.32001 v -1.44379 z m 8.44395,0 v 1.44379 h 3.92349 v 12.177 h 1.59505 v -12.177 h 3.93295 v -1.44379 z m -26.88098,11.69349 c -0.29129,0 -0.54195,0.10748 -0.75092,0.32278 -0.20264,0.20898 -0.30389,0.45829 -0.30389,0.74959 0,0.29129 0.10125,0.54196 0.30389,0.75094 0.20897,0.20896 0.45963,0.31333 0.75092,0.31333 0.29763,0 0.55142,-0.10437 0.76039,-0.31333 0.20898,-0.20899 0.31334,-0.45965 0.31334,-0.75094 0,-0.2913 -0.10436,-0.54061 -0.31334,-0.74959 -0.20897,-0.2153 -0.46276,-0.32278 -0.76039,-0.32278 z"   
          style="fill:#000000;" />
  </g>
</svg>
